<svg xmlns="http://www.w3.org/2000/svg" xmlns:xlink="http://www.w3.org/1999/xlink" fill="none" version="1.1" width="16" height="13.000030517578125" viewBox="0 0 16 13.000030517578125"><g><path d="M8.34186,0.975879L10.7868,0L16,12.0419L13.5389,12.9844L8.34186,0.975879ZM1.20757,12.1423Q2.37505,12.9844,4.34781,12.9844L4.34781,12.9965C5.37878,13.0359,6.39279,12.7407,7.21962,12.1605C7.97363,11.6074,8.39556,10.745,8.35153,9.84696C8.36396,9.41017,8.2734,8.9762,8.08634,8.57619C7.90569,8.22081,7.6221,7.92051,7.26814,7.70976C6.93762,7.49951,6.58286,7.32512,6.21061,7.1899C5.77699,7.04436,5.33547,6.92055,4.88789,6.81901C4.29072,6.70772,3.70602,6.54384,3.14152,6.32955C2.85444,6.22034,2.66996,5.95476,2.67905,5.66376C2.67804,5.39711,2.82517,5.1493,3.06714,5.01013C3.37157,4.83361,3.72524,4.74679,4.08262,4.76084C4.47306,4.7432,4.85835,4.85035,5.17572,5.06486C5.45505,5.27476,5.62948,5.584,5.65759,5.91913L8.0152,5.91913C8.02499,5.05905,7.60914,4.24351,6.88975,3.712C6.0969,3.18493,5.14007,2.92076,4.16994,2.96109C3.17616,2.91776,2.194,3.17683,1.36927,3.69984C0.657787,4.19234,0.302044,4.93413,0.302044,5.91913C0.29517,6.2766,0.366729,6.63157,0.512255,6.96189C0.629904,7.24816,0.80689,7.50961,1.03293,7.73104C1.27079,7.94486,1.5452,8.11957,1.84467,8.24786C2.1379,8.38783,2.44294,8.50476,2.75667,8.59748C3.02509,8.67348,3.3679,8.76164,3.78509,8.85893C3.80326,8.85578,3.82189,8.85578,3.84007,8.85893L3.88211,8.85893L3.92739,8.87413C4.4707,9.01701,4.84262,9.11734,5.03666,9.17814C5.24987,9.25239,5.44627,9.36378,5.61555,9.50647C5.80067,9.65127,5.90643,9.86685,5.90338,10.0932C5.91829,10.4076,5.74133,10.7026,5.44738,10.8532C5.10676,11.0279,4.7227,11.114,4.33487,11.1025C3.162,11.1025,2.52598,10.6445,2.4268,9.7284L0.00127928,9.7284C-0.0271793,10.6674,0.420542,11.5633,1.20757,12.1423Z" fill-rule="evenodd" fill="#F1ECFD" fill-opacity="1"/></g></svg>